<mxfile host="app.diagrams.net" agent="Mozilla/5.0 (Windows NT 10.0; Win64; x64) AppleWebKit/537.36 (KHTML, like Gecko) Chrome/131.0.0.0 Safari/537.36" version="24.9.0" pages="2">
  <diagram name="Страница — 1" id="tRpR0Kobc1mQKF8O6Xj2">
    <mxGraphModel dx="1221" dy="1875" grid="1" gridSize="10" guides="1" tooltips="1" connect="1" arrows="1" fold="1" page="1" pageScale="1" pageWidth="827" pageHeight="1169" math="0" shadow="0">
      <root>
        <mxCell id="0" />
        <mxCell id="1" parent="0" />
        <mxCell id="aTOD2q8e6nUc6o2Chz0G-34" style="edgeStyle=orthogonalEdgeStyle;rounded=0;orthogonalLoop=1;jettySize=auto;html=1;exitX=1;exitY=0.3333333333333333;exitDx=0;exitDy=0;exitPerimeter=0;entryX=0;entryY=0.5;entryDx=0;entryDy=0;curved=1;" edge="1" parent="1" source="aTOD2q8e6nUc6o2Chz0G-1" target="aTOD2q8e6nUc6o2Chz0G-33">
          <mxGeometry relative="1" as="geometry" />
        </mxCell>
        <mxCell id="aTOD2q8e6nUc6o2Chz0G-46" style="edgeStyle=orthogonalEdgeStyle;rounded=0;orthogonalLoop=1;jettySize=auto;html=1;exitX=1;exitY=0.3333333333333333;exitDx=0;exitDy=0;exitPerimeter=0;entryX=0;entryY=0.5;entryDx=0;entryDy=0;curved=1;" edge="1" parent="1" source="aTOD2q8e6nUc6o2Chz0G-1" target="aTOD2q8e6nUc6o2Chz0G-45">
          <mxGeometry relative="1" as="geometry" />
        </mxCell>
        <mxCell id="aTOD2q8e6nUc6o2Chz0G-1" value="Admin" style="shape=umlActor;verticalLabelPosition=bottom;verticalAlign=top;html=1;outlineConnect=0;" vertex="1" parent="1">
          <mxGeometry x="90" y="610" width="30" height="60" as="geometry" />
        </mxCell>
        <mxCell id="aTOD2q8e6nUc6o2Chz0G-27" style="edgeStyle=orthogonalEdgeStyle;rounded=0;orthogonalLoop=1;jettySize=auto;html=1;exitX=1;exitY=0.3333333333333333;exitDx=0;exitDy=0;exitPerimeter=0;entryX=0;entryY=0.5;entryDx=0;entryDy=0;curved=1;" edge="1" parent="1" source="aTOD2q8e6nUc6o2Chz0G-3" target="aTOD2q8e6nUc6o2Chz0G-18">
          <mxGeometry relative="1" as="geometry" />
        </mxCell>
        <mxCell id="aTOD2q8e6nUc6o2Chz0G-3" value="User" style="shape=umlActor;verticalLabelPosition=bottom;verticalAlign=top;html=1;outlineConnect=0;" vertex="1" parent="1">
          <mxGeometry x="160" y="120" width="30" height="60" as="geometry" />
        </mxCell>
        <mxCell id="aTOD2q8e6nUc6o2Chz0G-13" style="edgeStyle=orthogonalEdgeStyle;rounded=0;orthogonalLoop=1;jettySize=auto;html=1;exitX=1;exitY=0.3333333333333333;exitDx=0;exitDy=0;exitPerimeter=0;entryX=0;entryY=0.5;entryDx=0;entryDy=0;curved=1;" edge="1" parent="1" source="aTOD2q8e6nUc6o2Chz0G-4" target="aTOD2q8e6nUc6o2Chz0G-9">
          <mxGeometry relative="1" as="geometry" />
        </mxCell>
        <mxCell id="aTOD2q8e6nUc6o2Chz0G-28" style="edgeStyle=orthogonalEdgeStyle;rounded=0;orthogonalLoop=1;jettySize=auto;html=1;exitX=1;exitY=0.3333333333333333;exitDx=0;exitDy=0;exitPerimeter=0;entryX=0;entryY=0.5;entryDx=0;entryDy=0;curved=1;" edge="1" parent="1" source="aTOD2q8e6nUc6o2Chz0G-4" target="aTOD2q8e6nUc6o2Chz0G-11">
          <mxGeometry relative="1" as="geometry" />
        </mxCell>
        <mxCell id="aTOD2q8e6nUc6o2Chz0G-4" value="Goste" style="shape=umlActor;verticalLabelPosition=bottom;verticalAlign=top;html=1;outlineConnect=0;" vertex="1" parent="1">
          <mxGeometry x="160" y="10" width="30" height="60" as="geometry" />
        </mxCell>
        <mxCell id="aTOD2q8e6nUc6o2Chz0G-22" style="edgeStyle=orthogonalEdgeStyle;rounded=0;orthogonalLoop=1;jettySize=auto;html=1;exitX=0;exitY=0.5;exitDx=0;exitDy=0;entryX=1;entryY=0.5;entryDx=0;entryDy=0;curved=1;dashed=1;dashPattern=8 8;" edge="1" parent="1" source="aTOD2q8e6nUc6o2Chz0G-9" target="aTOD2q8e6nUc6o2Chz0G-18">
          <mxGeometry relative="1" as="geometry" />
        </mxCell>
        <mxCell id="aTOD2q8e6nUc6o2Chz0G-25" value="include" style="edgeLabel;html=1;align=center;verticalAlign=middle;resizable=0;points=[];" vertex="1" connectable="0" parent="aTOD2q8e6nUc6o2Chz0G-22">
          <mxGeometry x="-0.0571" y="1" relative="1" as="geometry">
            <mxPoint as="offset" />
          </mxGeometry>
        </mxCell>
        <mxCell id="aTOD2q8e6nUc6o2Chz0G-9" value="просмотр" style="ellipse;whiteSpace=wrap;html=1;" vertex="1" parent="1">
          <mxGeometry x="580" y="260" width="140" height="70" as="geometry" />
        </mxCell>
        <mxCell id="aTOD2q8e6nUc6o2Chz0G-11" value="Регестриция" style="ellipse;whiteSpace=wrap;html=1;" vertex="1" parent="1">
          <mxGeometry x="370" y="-50" width="140" height="70" as="geometry" />
        </mxCell>
        <mxCell id="aTOD2q8e6nUc6o2Chz0G-23" style="edgeStyle=orthogonalEdgeStyle;rounded=0;orthogonalLoop=1;jettySize=auto;html=1;exitX=0;exitY=0.5;exitDx=0;exitDy=0;entryX=1;entryY=0.5;entryDx=0;entryDy=0;curved=1;dashed=1;dashPattern=8 8;" edge="1" parent="1" source="aTOD2q8e6nUc6o2Chz0G-14" target="aTOD2q8e6nUc6o2Chz0G-18">
          <mxGeometry relative="1" as="geometry" />
        </mxCell>
        <mxCell id="aTOD2q8e6nUc6o2Chz0G-26" value="include" style="edgeLabel;html=1;align=center;verticalAlign=middle;resizable=0;points=[];" vertex="1" connectable="0" parent="aTOD2q8e6nUc6o2Chz0G-23">
          <mxGeometry x="0.1399" y="4" relative="1" as="geometry">
            <mxPoint as="offset" />
          </mxGeometry>
        </mxCell>
        <mxCell id="aTOD2q8e6nUc6o2Chz0G-31" style="edgeStyle=orthogonalEdgeStyle;rounded=0;orthogonalLoop=1;jettySize=auto;html=1;exitX=1;exitY=0.5;exitDx=0;exitDy=0;entryX=0;entryY=0.5;entryDx=0;entryDy=0;startArrow=classic;startFill=1;endArrow=none;endFill=0;dashed=1;dashPattern=8 8;curved=1;" edge="1" parent="1" source="aTOD2q8e6nUc6o2Chz0G-14" target="aTOD2q8e6nUc6o2Chz0G-30">
          <mxGeometry relative="1" as="geometry" />
        </mxCell>
        <mxCell id="aTOD2q8e6nUc6o2Chz0G-32" value="extend" style="edgeLabel;html=1;align=center;verticalAlign=middle;resizable=0;points=[];" vertex="1" connectable="0" parent="aTOD2q8e6nUc6o2Chz0G-31">
          <mxGeometry x="-0.0991" relative="1" as="geometry">
            <mxPoint as="offset" />
          </mxGeometry>
        </mxCell>
        <mxCell id="aTOD2q8e6nUc6o2Chz0G-14" value="Bronyrovanie&amp;nbsp;&lt;div&gt;meropryate&lt;/div&gt;" style="ellipse;whiteSpace=wrap;html=1;" vertex="1" parent="1">
          <mxGeometry x="580" y="390" width="140" height="70" as="geometry" />
        </mxCell>
        <mxCell id="aTOD2q8e6nUc6o2Chz0G-48" style="edgeStyle=orthogonalEdgeStyle;rounded=0;orthogonalLoop=1;jettySize=auto;html=1;exitX=0;exitY=0.5;exitDx=0;exitDy=0;entryX=1;entryY=0.5;entryDx=0;entryDy=0;curved=1;dashed=1;dashPattern=8 8;" edge="1" parent="1" source="aTOD2q8e6nUc6o2Chz0G-15" target="aTOD2q8e6nUc6o2Chz0G-14">
          <mxGeometry relative="1" as="geometry" />
        </mxCell>
        <mxCell id="aTOD2q8e6nUc6o2Chz0G-49" value="extend" style="edgeLabel;html=1;align=center;verticalAlign=middle;resizable=0;points=[];" vertex="1" connectable="0" parent="aTOD2q8e6nUc6o2Chz0G-48">
          <mxGeometry x="-0.302" y="10" relative="1" as="geometry">
            <mxPoint as="offset" />
          </mxGeometry>
        </mxCell>
        <mxCell id="aTOD2q8e6nUc6o2Chz0G-15" value="Otmena brony" style="ellipse;whiteSpace=wrap;html=1;" vertex="1" parent="1">
          <mxGeometry x="850" y="280" width="140" height="70" as="geometry" />
        </mxCell>
        <mxCell id="aTOD2q8e6nUc6o2Chz0G-18" value="Zakaz meropryatia&amp;nbsp;" style="ellipse;whiteSpace=wrap;html=1;" vertex="1" parent="1">
          <mxGeometry x="330" y="330" width="140" height="70" as="geometry" />
        </mxCell>
        <mxCell id="aTOD2q8e6nUc6o2Chz0G-30" value="Vznos" style="ellipse;whiteSpace=wrap;html=1;" vertex="1" parent="1">
          <mxGeometry x="827" y="500" width="140" height="70" as="geometry" />
        </mxCell>
        <mxCell id="aTOD2q8e6nUc6o2Chz0G-33" value="Upravlate Bronyronirovanyev" style="ellipse;whiteSpace=wrap;html=1;" vertex="1" parent="1">
          <mxGeometry x="300" y="670" width="140" height="70" as="geometry" />
        </mxCell>
        <mxCell id="aTOD2q8e6nUc6o2Chz0G-38" style="edgeStyle=orthogonalEdgeStyle;rounded=0;orthogonalLoop=1;jettySize=auto;html=1;exitX=0;exitY=0.5;exitDx=0;exitDy=0;entryX=1;entryY=0.5;entryDx=0;entryDy=0;curved=1;dashed=1;dashPattern=8 8;" edge="1" parent="1" source="aTOD2q8e6nUc6o2Chz0G-35" target="aTOD2q8e6nUc6o2Chz0G-33">
          <mxGeometry relative="1" as="geometry" />
        </mxCell>
        <mxCell id="aTOD2q8e6nUc6o2Chz0G-41" value="include" style="edgeLabel;html=1;align=center;verticalAlign=middle;resizable=0;points=[];" vertex="1" connectable="0" parent="aTOD2q8e6nUc6o2Chz0G-38">
          <mxGeometry x="-0.4633" y="11" relative="1" as="geometry">
            <mxPoint as="offset" />
          </mxGeometry>
        </mxCell>
        <mxCell id="aTOD2q8e6nUc6o2Chz0G-35" value="Udalyte" style="ellipse;whiteSpace=wrap;html=1;" vertex="1" parent="1">
          <mxGeometry x="650" y="585" width="140" height="70" as="geometry" />
        </mxCell>
        <mxCell id="aTOD2q8e6nUc6o2Chz0G-39" style="edgeStyle=orthogonalEdgeStyle;rounded=0;orthogonalLoop=1;jettySize=auto;html=1;exitX=0;exitY=0.5;exitDx=0;exitDy=0;entryX=1;entryY=0.5;entryDx=0;entryDy=0;curved=1;dashed=1;dashPattern=8 8;" edge="1" parent="1" source="aTOD2q8e6nUc6o2Chz0G-36" target="aTOD2q8e6nUc6o2Chz0G-33">
          <mxGeometry relative="1" as="geometry">
            <mxPoint x="470" y="770" as="targetPoint" />
          </mxGeometry>
        </mxCell>
        <mxCell id="aTOD2q8e6nUc6o2Chz0G-42" value="include" style="edgeLabel;html=1;align=center;verticalAlign=middle;resizable=0;points=[];" vertex="1" connectable="0" parent="aTOD2q8e6nUc6o2Chz0G-39">
          <mxGeometry x="0.0215" y="1" relative="1" as="geometry">
            <mxPoint as="offset" />
          </mxGeometry>
        </mxCell>
        <mxCell id="aTOD2q8e6nUc6o2Chz0G-36" value="Dobavlate" style="ellipse;whiteSpace=wrap;html=1;" vertex="1" parent="1">
          <mxGeometry x="640" y="740" width="140" height="70" as="geometry" />
        </mxCell>
        <mxCell id="aTOD2q8e6nUc6o2Chz0G-40" style="edgeStyle=orthogonalEdgeStyle;rounded=0;orthogonalLoop=1;jettySize=auto;html=1;exitX=0;exitY=0.5;exitDx=0;exitDy=0;entryX=1;entryY=0.5;entryDx=0;entryDy=0;curved=1;dashed=1;dashPattern=8 8;" edge="1" parent="1" source="aTOD2q8e6nUc6o2Chz0G-37" target="aTOD2q8e6nUc6o2Chz0G-33">
          <mxGeometry relative="1" as="geometry" />
        </mxCell>
        <mxCell id="aTOD2q8e6nUc6o2Chz0G-43" value="include" style="edgeLabel;html=1;align=center;verticalAlign=middle;resizable=0;points=[];" vertex="1" connectable="0" parent="aTOD2q8e6nUc6o2Chz0G-40">
          <mxGeometry x="-0.1897" y="-6" relative="1" as="geometry">
            <mxPoint as="offset" />
          </mxGeometry>
        </mxCell>
        <mxCell id="aTOD2q8e6nUc6o2Chz0G-37" value="Redaktyrovate" style="ellipse;whiteSpace=wrap;html=1;" vertex="1" parent="1">
          <mxGeometry x="610" y="865" width="140" height="70" as="geometry" />
        </mxCell>
        <mxCell id="aTOD2q8e6nUc6o2Chz0G-45" value="Prosmotr vse bronyrovanya" style="ellipse;whiteSpace=wrap;html=1;" vertex="1" parent="1">
          <mxGeometry x="300" y="910" width="140" height="70" as="geometry" />
        </mxCell>
      </root>
    </mxGraphModel>
  </diagram>
  <diagram id="W2a2jg87nv4w9XzV8dlk" name="Страница — 2">
    <mxGraphModel dx="1766" dy="543" grid="1" gridSize="10" guides="1" tooltips="1" connect="1" arrows="1" fold="1" page="1" pageScale="1" pageWidth="827" pageHeight="1169" math="0" shadow="0">
      <root>
        <mxCell id="0" />
        <mxCell id="1" parent="0" />
        <mxCell id="4dUe83G2dAQOXLaseVXt-3" style="edgeStyle=orthogonalEdgeStyle;rounded=0;orthogonalLoop=1;jettySize=auto;html=1;exitX=0.5;exitY=1;exitDx=0;exitDy=0;entryX=0.5;entryY=0;entryDx=0;entryDy=0;" edge="1" parent="1" source="4dUe83G2dAQOXLaseVXt-1" target="4dUe83G2dAQOXLaseVXt-2">
          <mxGeometry relative="1" as="geometry" />
        </mxCell>
        <mxCell id="4dUe83G2dAQOXLaseVXt-4" value="Vybor tovarov" style="edgeLabel;html=1;align=center;verticalAlign=middle;resizable=0;points=[];" vertex="1" connectable="0" parent="4dUe83G2dAQOXLaseVXt-3">
          <mxGeometry x="-0.1259" relative="1" as="geometry">
            <mxPoint as="offset" />
          </mxGeometry>
        </mxCell>
        <mxCell id="4dUe83G2dAQOXLaseVXt-1" value="" style="shape=ellipse;html=1;fillColor=strokeColor;fontSize=18;fontColor=#ffffff;" vertex="1" parent="1">
          <mxGeometry x="-450" y="90" width="40" height="40" as="geometry" />
        </mxCell>
        <mxCell id="4dUe83G2dAQOXLaseVXt-6" style="edgeStyle=orthogonalEdgeStyle;rounded=0;orthogonalLoop=1;jettySize=auto;html=1;exitX=0.5;exitY=1;exitDx=0;exitDy=0;entryX=0.5;entryY=0;entryDx=0;entryDy=0;" edge="1" parent="1" source="4dUe83G2dAQOXLaseVXt-2" target="4dUe83G2dAQOXLaseVXt-5">
          <mxGeometry relative="1" as="geometry" />
        </mxCell>
        <mxCell id="4dUe83G2dAQOXLaseVXt-7" value="Zapalnenye dadnyh&lt;div&gt;[FIO, Addres, Telefon]&lt;/div&gt;" style="edgeLabel;html=1;align=center;verticalAlign=middle;resizable=0;points=[];" vertex="1" connectable="0" parent="4dUe83G2dAQOXLaseVXt-6">
          <mxGeometry x="-0.2118" relative="1" as="geometry">
            <mxPoint as="offset" />
          </mxGeometry>
        </mxCell>
        <mxCell id="4dUe83G2dAQOXLaseVXt-2" value="Dobavlenye v korzynu" style="shape=rect;rounded=1;html=1;whiteSpace=wrap;align=center;" vertex="1" parent="1">
          <mxGeometry x="-480" y="170" width="100" height="40" as="geometry" />
        </mxCell>
        <mxCell id="4dUe83G2dAQOXLaseVXt-9" style="edgeStyle=orthogonalEdgeStyle;rounded=0;orthogonalLoop=1;jettySize=auto;html=1;exitX=0.5;exitY=1;exitDx=0;exitDy=0;entryX=0.5;entryY=0;entryDx=0;entryDy=0;" edge="1" parent="1" source="4dUe83G2dAQOXLaseVXt-5" target="4dUe83G2dAQOXLaseVXt-8">
          <mxGeometry relative="1" as="geometry" />
        </mxCell>
        <mxCell id="4dUe83G2dAQOXLaseVXt-10" value="pokupatel oplacyvaet&lt;div&gt;[nomer carty]&lt;/div&gt;" style="edgeLabel;html=1;align=center;verticalAlign=middle;resizable=0;points=[];" vertex="1" connectable="0" parent="4dUe83G2dAQOXLaseVXt-9">
          <mxGeometry x="-0.171" relative="1" as="geometry">
            <mxPoint as="offset" />
          </mxGeometry>
        </mxCell>
        <mxCell id="4dUe83G2dAQOXLaseVXt-5" value="Oformlenye zakazov" style="shape=rect;rounded=1;html=1;whiteSpace=wrap;align=center;" vertex="1" parent="1">
          <mxGeometry x="-480" y="280" width="100" height="40" as="geometry" />
        </mxCell>
        <mxCell id="4dUe83G2dAQOXLaseVXt-11" style="edgeStyle=orthogonalEdgeStyle;rounded=0;orthogonalLoop=1;jettySize=auto;html=1;exitX=1;exitY=0.5;exitDx=0;exitDy=0;entryX=1;entryY=0.5;entryDx=0;entryDy=0;" edge="1" parent="1" source="4dUe83G2dAQOXLaseVXt-13" target="4dUe83G2dAQOXLaseVXt-5">
          <mxGeometry relative="1" as="geometry">
            <Array as="points">
              <mxPoint x="-290" y="510" />
              <mxPoint x="-290" y="300" />
            </Array>
          </mxGeometry>
        </mxCell>
        <mxCell id="4dUe83G2dAQOXLaseVXt-12" value="Olata ne proshla" style="edgeLabel;html=1;align=center;verticalAlign=middle;resizable=0;points=[];" vertex="1" connectable="0" parent="4dUe83G2dAQOXLaseVXt-11">
          <mxGeometry x="-0.0646" y="-2" relative="1" as="geometry">
            <mxPoint y="-4" as="offset" />
          </mxGeometry>
        </mxCell>
        <mxCell id="4dUe83G2dAQOXLaseVXt-14" style="edgeStyle=orthogonalEdgeStyle;rounded=0;orthogonalLoop=1;jettySize=auto;html=1;exitX=0.5;exitY=1;exitDx=0;exitDy=0;entryX=0.5;entryY=0;entryDx=0;entryDy=0;" edge="1" parent="1" source="4dUe83G2dAQOXLaseVXt-8" target="4dUe83G2dAQOXLaseVXt-13">
          <mxGeometry relative="1" as="geometry" />
        </mxCell>
        <mxCell id="4dUe83G2dAQOXLaseVXt-15" value="Proverka platega" style="edgeLabel;html=1;align=center;verticalAlign=middle;resizable=0;points=[];" vertex="1" connectable="0" parent="4dUe83G2dAQOXLaseVXt-14">
          <mxGeometry x="-0.1286" relative="1" as="geometry">
            <mxPoint as="offset" />
          </mxGeometry>
        </mxCell>
        <mxCell id="4dUe83G2dAQOXLaseVXt-8" value="Oplata zakaza" style="shape=rect;rounded=1;html=1;whiteSpace=wrap;align=center;" vertex="1" parent="1">
          <mxGeometry x="-480" y="390" width="100" height="40" as="geometry" />
        </mxCell>
        <mxCell id="4dUe83G2dAQOXLaseVXt-17" style="edgeStyle=orthogonalEdgeStyle;rounded=0;orthogonalLoop=1;jettySize=auto;html=1;exitX=0.5;exitY=1;exitDx=0;exitDy=0;entryX=0.5;entryY=0;entryDx=0;entryDy=0;" edge="1" parent="1" source="4dUe83G2dAQOXLaseVXt-13" target="4dUe83G2dAQOXLaseVXt-16">
          <mxGeometry relative="1" as="geometry" />
        </mxCell>
        <mxCell id="4dUe83G2dAQOXLaseVXt-18" value="Zakaz obrabatyvaetsa na sklade" style="edgeLabel;html=1;align=center;verticalAlign=middle;resizable=0;points=[];" vertex="1" connectable="0" parent="4dUe83G2dAQOXLaseVXt-17">
          <mxGeometry x="-0.2743" y="1" relative="1" as="geometry">
            <mxPoint as="offset" />
          </mxGeometry>
        </mxCell>
        <mxCell id="4dUe83G2dAQOXLaseVXt-13" value="Potvergdenye oplaty" style="shape=rect;rounded=1;html=1;whiteSpace=wrap;align=center;" vertex="1" parent="1">
          <mxGeometry x="-480" y="490" width="100" height="40" as="geometry" />
        </mxCell>
        <mxCell id="4dUe83G2dAQOXLaseVXt-20" style="edgeStyle=orthogonalEdgeStyle;rounded=0;orthogonalLoop=1;jettySize=auto;html=1;exitX=0.5;exitY=1;exitDx=0;exitDy=0;" edge="1" parent="1" source="4dUe83G2dAQOXLaseVXt-16" target="4dUe83G2dAQOXLaseVXt-19">
          <mxGeometry relative="1" as="geometry" />
        </mxCell>
        <mxCell id="4dUe83G2dAQOXLaseVXt-21" value="zakaz otpravlaetsa na dostavku" style="edgeLabel;html=1;align=center;verticalAlign=middle;resizable=0;points=[];" vertex="1" connectable="0" parent="4dUe83G2dAQOXLaseVXt-20">
          <mxGeometry x="-0.1475" y="1" relative="1" as="geometry">
            <mxPoint as="offset" />
          </mxGeometry>
        </mxCell>
        <mxCell id="4dUe83G2dAQOXLaseVXt-16" value="Obrabotka zakaza" style="shape=rect;rounded=1;html=1;whiteSpace=wrap;align=center;" vertex="1" parent="1">
          <mxGeometry x="-480" y="585" width="100" height="40" as="geometry" />
        </mxCell>
        <mxCell id="4dUe83G2dAQOXLaseVXt-19" value="Otpravka zakaza" style="shape=rect;rounded=1;html=1;whiteSpace=wrap;align=center;" vertex="1" parent="1">
          <mxGeometry x="-480" y="680" width="100" height="40" as="geometry" />
        </mxCell>
        <mxCell id="4dUe83G2dAQOXLaseVXt-22" value="" style="shape=mxgraph.sysml.actFinal;html=1;verticalLabelPosition=bottom;labelBackgroundColor=#ffffff;verticalAlign=top;" vertex="1" parent="1">
          <mxGeometry x="-450" y="780" width="40" height="40" as="geometry" />
        </mxCell>
        <mxCell id="4dUe83G2dAQOXLaseVXt-23" style="edgeStyle=orthogonalEdgeStyle;rounded=0;orthogonalLoop=1;jettySize=auto;html=1;exitX=0.5;exitY=1;exitDx=0;exitDy=0;entryX=0.5;entryY=0;entryDx=0;entryDy=0;entryPerimeter=0;" edge="1" parent="1" source="4dUe83G2dAQOXLaseVXt-19" target="4dUe83G2dAQOXLaseVXt-22">
          <mxGeometry relative="1" as="geometry" />
        </mxCell>
      </root>
    </mxGraphModel>
  </diagram>
</mxfile>
